<svg xmlns="http://www.w3.org/2000/svg" xmlns:v="https://svgstorm.com"
viewBox = "0 0 438 119"
width="438"
height="119">
<g fill="None" fill-opacity="0.0" stroke="#000000" stroke-opacity="0.00" stroke-width="0.3"><path d="
M 0.00 119.00 
L 438.00 119.00
L 438.00 0.00
L 0.00 0.00
L 0.00 119.00
M 105.00 28.00 
C 107.74 36.21 111.44 43.79 114.00 52.00
C 115.16 54.65 117.27 56.88 118.00 60.00
C 118.11 60.47 118.00 61.00 118.00 61.00
C 118.99 62.23 120.70 64.23 121.00 66.00
C 121.22 67.28 120.71 68.74 121.00 70.00
C 121.35 71.50 123.37 74.19 124.00 76.00
C 126.41 82.94 129.12 90.18 132.00 97.00
C 133.14 99.00 134.24 100.63 135.00 103.00
C 135.95 105.98 136.39 109.17 138.00 112.00
C 129.92 111.37 118.77 112.84 111.00 112.00 C 103.23 111.16 102.53 100.43 100.00 95.00
C 99.10 92.79 97.80 90.75 97.00 88.00
C 95.41 82.54 92.58 77.49 91.00 72.00
C 90.30 70.36 89.65 69.08 89.00 67.00
C 87.76 64.31 87.09 61.67 86.00 59.00
C 83.38 52.55 79.00 47.40 78.07 39.93 C 77.15 32.46 65.65 31.63 64.08 26.92 C 62.52 22.20 68.25 11.64 70.93 6.93 C 73.60 2.21 91.85 6.45 97.00 5.00
C 97.43 13.29 102.96 20.12 105.00 28.00
M 215.00 70.00 
C 217.48 79.70 207.71 76.77 201.00 77.00 C 194.29 77.23 185.86 76.83 179.00 77.00
C 177.12 70.64 181.38 68.83 187.00 70.00
C 186.06 67.29 184.60 64.81 184.00 62.00
C 175.12 63.72 158.67 56.68 158.00 70.00
C 163.63 68.78 167.80 70.63 166.00 77.00
C 156.67 77.00 147.33 77.00 138.00 77.00
C 135.31 68.64 143.27 69.69 149.00 70.00
C 155.97 49.78 164.95 30.22 172.00 10.00
C 188.03 7.88 186.00 30.13 192.93 40.07 C 199.85 50.02 197.92 73.30 215.00 70.00
M 412.00 12.00 
C 409.50 14.01 409.76 17.03 410.00 21.00
C 404.29 20.85 409.00 11.56 404.00 10.00
C 406.67 10.00 409.33 10.00 412.00 10.00
C 415.44 10.33 418.68 10.22 418.00 15.00
C 421.75 14.92 419.93 8.02 425.00 10.00
C 425.00 13.67 425.00 17.33 425.00 21.00
C 420.84 22.48 422.38 13.85 420.00 20.00
C 414.98 16.05 417.89 19.95 413.00 21.00
C 412.41 18.16 414.23 14.02 412.00 12.00
M 259.00 11.00 
C 261.48 18.75 254.68 18.60 249.00 18.00
C 249.00 26.00 249.00 34.00 249.00 42.00
C 258.32 34.73 266.35 25.61 276.00 19.00
C 271.67 18.52 269.96 15.89 271.00 11.00
C 280.33 11.00 289.67 11.00 299.00 11.00
C 302.53 20.95 284.82 17.03 281.75 23.75 C 278.69 30.48 265.54 32.42 269.31 39.70 C 273.07 46.97 278.36 50.74 282.30 57.70 C 286.24 64.66 291.57 72.78 301.00 70.00
C 303.64 79.72 293.49 76.76 287.00 77.00 C 280.51 77.24 272.62 76.82 266.00 77.00
C 264.39 71.16 267.63 69.80 272.00 69.00
C 266.29 62.20 260.80 54.61 256.00 47.00
C 253.26 48.09 252.17 52.03 249.00 52.00
C 249.00 58.00 249.00 64.00 249.00 70.00
C 252.33 70.00 255.67 70.00 259.00 70.00
C 261.59 80.05 250.72 76.64 244.00 77.00 C 237.28 77.36 228.87 76.73 222.00 77.00
C 219.52 69.25 226.32 69.40 232.00 70.00
C 232.00 52.67 232.00 35.33 232.00 18.00
C 228.67 18.00 225.33 18.00 222.00 18.00
C 219.41 7.95 230.28 11.36 237.00 11.00 C 243.72 10.64 252.13 11.27 259.00 11.00
M 345.00 11.00 
C 347.69 19.36 339.73 18.31 334.00 18.00
C 334.00 35.33 334.00 52.67 334.00 70.00
C 337.67 70.00 341.33 70.00 345.00 70.00
C 347.51 80.36 335.95 76.53 329.00 77.00 C 322.05 77.47 313.13 76.65 306.00 77.00
C 303.31 68.64 311.27 69.69 317.00 70.00
C 317.00 52.67 317.00 35.33 317.00 18.00
C 313.33 18.00 309.67 18.00 306.00 18.00
C 303.49 7.64 315.05 11.47 322.00 11.00 C 328.95 10.53 337.87 11.35 345.00 11.00
M 398.00 11.00 
C 399.88 17.36 395.62 19.17 390.00 18.00
C 391.94 31.60 387.41 44.32 390.00 58.00 C 392.59 71.68 379.56 77.87 369.00 78.00 C 358.44 78.13 343.71 77.15 346.33 63.33 C 348.95 49.51 372.48 61.23 362.00 72.00
C 374.97 73.64 374.36 61.00 374.00 51.00 C 373.64 41.00 374.27 28.25 374.00 18.00
C 369.33 18.00 364.67 18.00 360.00 18.00
C 357.57 7.96 368.06 11.34 375.00 11.00 C 381.94 10.66 390.88 11.25 398.00 11.00
M 81.00 72.00 
C 81.90 74.02 83.42 75.55 84.00 78.00
C 84.11 78.47 84.00 79.00 84.00 79.00
C 85.87 81.33 87.12 84.05 88.00 87.00
C 88.58 88.95 88.27 90.76 89.00 93.00
C 89.95 94.94 90.32 96.00 91.00 98.00
C 91.78 99.53 92.36 100.06 93.00 102.00
C 94.13 105.43 95.64 108.71 97.00 112.00
C 87.17 111.34 76.01 113.33 67.00 111.00
C 64.05 108.80 63.60 102.13 61.23 98.77 C 58.86 95.41 57.96 89.76 56.00 86.00
C 54.92 83.94 53.00 80.28 51.00 79.00
C 49.02 77.96 46.58 78.37 44.00 78.00
C 45.63 68.27 52.10 61.52 53.78 51.78 C 55.45 42.03 66.39 34.00 70.78 45.22 C 75.17 56.45 77.21 61.28 81.00 72.00
M 50.00 90.00 
C 52.01 92.20 53.05 95.14 54.00 98.00
C 55.59 102.77 57.26 107.34 59.00 112.00
C 49.33 112.00 39.67 112.00 30.00 112.00
C 33.84 104.07 37.08 79.63 50.00 90.00
M 190.00 88.00 
C 191.72 89.72 188.53 93.85 186.33 91.67 C 184.13 89.49 188.33 86.33 190.00 88.00
M 218.00 88.00 
C 217.86 94.47 217.88 100.84 219.00 107.00
C 211.39 106.72 211.47 87.77 218.00 88.00
M 158.00 93.00 
C 148.09 88.78 148.82 108.01 158.00 102.00
C 156.59 110.76 147.71 106.47 147.00 99.00 C 146.29 91.52 154.72 83.88 158.00 93.00
M 234.00 99.00 
C 237.08 96.13 235.80 87.73 242.00 89.00
C 242.00 94.67 242.00 100.33 242.00 106.00
C 236.51 107.22 240.86 99.69 238.00 98.00
C 237.74 100.44 236.24 102.52 236.00 105.00
C 232.14 106.15 232.10 101.46 230.00 100.00
C 230.35 103.15 230.46 107.30 226.00 106.00
C 226.00 100.33 226.00 94.67 226.00 89.00
C 232.19 87.67 231.65 95.44 234.00 99.00
M 197.00 90.00 
C 195.61 93.77 201.35 92.13 200.00 96.00
C 195.54 96.90 195.93 103.96 201.00 104.00
C 200.20 99.52 204.26 98.21 208.00 99.00
C 202.18 98.67 201.15 91.38 208.00 93.00 C 214.85 94.62 209.21 103.83 213.00 107.00
C 207.71 103.56 200.68 108.51 195.78 106.22 C 190.87 103.93 188.82 88.89 197.00 90.00
M 365.00 94.00 
C 363.16 97.03 357.26 102.17 365.00 104.00
C 358.32 113.99 350.28 90.10 360.00 90.00
C 360.87 92.28 362.46 93.23 365.00 94.00
M 171.00 107.00 
C 167.20 103.01 164.60 108.97 160.78 106.22 C 156.96 103.47 160.67 96.17 166.00 99.00
C 160.61 98.11 158.61 92.10 166.00 93.00 C 173.40 93.91 168.40 103.04 171.00 107.00
M 175.00 112.00 
C 169.27 109.40 172.28 98.34 173.00 93.00
C 178.17 93.10 183.99 92.66 183.99 100.01 C 184.00 107.36 175.26 105.62 175.00 112.00
M 190.00 106.00 
C 182.89 107.15 187.16 97.18 186.00 93.00
C 192.81 92.61 189.02 101.86 190.00 106.00
M 256.00 107.00 
C 247.53 109.65 239.43 100.21 251.00 98.00
C 243.45 97.99 245.25 91.42 251.67 93.33 C 258.09 95.25 253.69 102.54 256.00 107.00
M 269.00 106.00 
C 263.08 107.61 265.45 100.40 265.00 97.00
C 259.53 96.03 261.22 102.73 261.00 106.00
C 255.17 105.99 259.19 96.93 258.00 93.00
C 266.76 91.14 271.29 96.72 269.00 106.00
M 282.00 107.00 
C 278.49 103.14 275.89 109.24 272.26 105.74 C 268.62 102.25 273.05 96.71 278.00 99.00
C 277.85 95.04 271.05 98.94 271.00 94.00
C 280.85 88.84 281.96 100.07 282.00 107.00
M 295.00 93.00 
C 296.20 98.89 290.55 101.47 288.00 104.00
C 301.48 102.07 291.00 117.07 283.00 111.00
C 282.26 105.56 288.42 109.65 291.00 108.00
C 289.33 106.42 286.19 107.03 284.00 106.00
C 282.19 98.17 283.96 90.13 295.00 93.00
M 300.00 101.00 
C 299.91 104.71 305.16 101.78 307.00 104.00
C 303.26 111.23 290.57 103.14 297.26 95.26 C 303.95 87.37 313.06 104.33 300.00 101.00
M 328.00 106.00 
C 322.08 107.61 324.45 100.40 324.00 97.00
C 318.53 96.03 320.22 102.73 320.00 106.00
C 313.65 107.15 320.43 95.32 313.00 97.00
C 313.00 100.00 313.00 103.00 313.00 106.00
C 305.89 107.15 310.16 97.18 309.00 93.00
C 318.16 94.19 331.85 90.34 328.00 106.00
M 333.00 102.00 
C 343.84 101.97 337.76 108.88 332.31 105.69 C 326.86 102.51 329.19 91.34 336.01 93.01 C 342.82 94.68 340.85 103.78 333.00 102.00
M 354.00 106.00 
C 348.08 107.61 350.45 100.40 350.00 97.00
C 342.57 95.33 349.43 107.10 343.00 106.00
C 343.00 101.67 343.00 97.33 343.00 93.00
C 351.76 91.14 356.29 96.72 354.00 106.00 Z"/>
</g>
<g fill="None" fill-opacity="0.0" stroke="#189BCD" stroke-opacity="0.89" stroke-width="0.3"><path d="
M 86.00 59.00 
C 86.24 54.41 92.39 49.27 94.77 43.77 C 97.15 38.27 100.25 30.17 105.00 28.00
C 102.96 20.12 97.43 13.29 97.00 5.00
C 91.85 6.45 73.60 2.21 70.93 6.93 C 68.25 11.64 62.52 22.20 64.08 26.92 C 65.65 31.63 77.15 32.46 78.07 39.93 C 79.00 47.40 83.38 52.55 86.00 59.00 Z"/>
</g>
<g fill="None" fill-opacity="0.0" stroke="#F7FDFD" stroke-opacity="0.93" stroke-width="0.3"><path d="
M 215.00 70.00 
C 197.92 73.30 199.85 50.02 192.93 40.07 C 186.00 30.13 188.03 7.88 172.00 10.00
C 164.95 30.22 155.97 49.78 149.00 70.00
C 143.27 69.69 135.31 68.64 138.00 77.00
C 147.33 77.00 156.67 77.00 166.00 77.00
C 167.80 70.63 163.63 68.78 158.00 70.00
C 158.67 56.68 175.12 63.72 184.00 62.00
C 184.60 64.81 186.06 67.29 187.00 70.00
C 181.38 68.83 177.12 70.64 179.00 77.00
C 185.86 76.83 194.29 77.23 201.00 77.00 C 207.71 76.77 217.48 79.70 215.00 70.00
M 173.00 33.00 
C 174.66 40.28 178.14 47.06 181.00 54.00
C 175.33 54.00 169.67 54.00 164.00 54.00
C 167.38 47.19 168.73 39.11 173.00 33.00 Z"/>
</g>
<g fill="None" fill-opacity="0.0" stroke="#F7FDFD" stroke-opacity="0.73" stroke-width="0.3"><path d="
M 412.00 12.00 
C 411.82 11.58 412.19 10.08 412.00 10.00
C 409.33 10.00 406.67 10.00 404.00 10.00
C 409.00 11.56 404.29 20.85 410.00 21.00
C 409.76 17.03 409.50 14.01 412.00 12.00 Z"/>
</g>
<g fill="None" fill-opacity="0.0" stroke="#F7FDFD" stroke-opacity="0.62" stroke-width="0.3"><path d="
M 412.00 12.00 
C 414.23 14.02 412.41 18.16 413.00 21.00
C 417.89 19.95 414.98 16.05 420.00 20.00
C 422.38 13.85 420.84 22.48 425.00 21.00
C 425.00 17.33 425.00 13.67 425.00 10.00
C 419.93 8.02 421.75 14.92 418.00 15.00
C 418.68 10.22 415.44 10.33 412.00 10.00
C 412.19 10.08 411.82 11.58 412.00 12.00 Z"/>
</g>
<g fill="None" fill-opacity="0.0" stroke="#F7FDFD" stroke-opacity="0.94" stroke-width="0.3"><path d="
M 259.00 11.00 
C 252.13 11.27 243.72 10.64 237.00 11.00 C 230.28 11.36 219.41 7.95 222.00 18.00
C 225.33 18.00 228.67 18.00 232.00 18.00
C 232.00 35.33 232.00 52.67 232.00 70.00
C 226.32 69.40 219.52 69.25 222.00 77.00
C 228.87 76.73 237.28 77.36 244.00 77.00 C 250.72 76.64 261.59 80.05 259.00 70.00
C 255.67 70.00 252.33 70.00 249.00 70.00
C 249.00 64.00 249.00 58.00 249.00 52.00
C 252.17 52.03 253.26 48.09 256.00 47.00
C 260.80 54.61 266.29 62.20 272.00 69.00
C 267.63 69.80 264.39 71.16 266.00 77.00
C 272.62 76.82 280.51 77.24 287.00 77.00 C 293.49 76.76 303.64 79.72 301.00 70.00
C 291.57 72.78 286.24 64.66 282.30 57.70 C 278.36 50.74 273.07 46.97 269.31 39.70 C 265.54 32.42 278.69 30.48 281.75 23.75 C 284.82 17.03 302.53 20.95 299.00 11.00
C 289.67 11.00 280.33 11.00 271.00 11.00
C 269.96 15.89 271.67 18.52 276.00 19.00
C 266.35 25.61 258.32 34.73 249.00 42.00
C 249.00 34.00 249.00 26.00 249.00 18.00
C 254.68 18.60 261.48 18.75 259.00 11.00 Z"/>
</g>
<g fill="None" fill-opacity="0.0" stroke="#F7FDFD" stroke-opacity="0.94" stroke-width="0.3"><path d="
M 345.00 11.00 
C 337.87 11.35 328.95 10.53 322.00 11.00 C 315.05 11.47 303.49 7.64 306.00 18.00
C 309.67 18.00 313.33 18.00 317.00 18.00
C 317.00 35.33 317.00 52.67 317.00 70.00
C 311.27 69.69 303.31 68.64 306.00 77.00
C 313.13 76.65 322.05 77.47 329.00 77.00 C 335.95 76.53 347.51 80.36 345.00 70.00
C 341.33 70.00 337.67 70.00 334.00 70.00
C 334.00 52.67 334.00 35.33 334.00 18.00
C 339.73 18.31 347.69 19.36 345.00 11.00 Z"/>
</g>
<g fill="None" fill-opacity="0.0" stroke="#F7FDFD" stroke-opacity="0.94" stroke-width="0.3"><path d="
M 398.00 11.00 
C 390.88 11.25 381.94 10.66 375.00 11.00 C 368.06 11.34 357.57 7.96 360.00 18.00
C 364.67 18.00 369.33 18.00 374.00 18.00
C 374.27 28.25 373.64 41.00 374.00 51.00 C 374.36 61.00 374.97 73.64 362.00 72.00
C 372.48 61.23 348.95 49.51 346.33 63.33 C 343.71 77.15 358.44 78.13 369.00 78.00 C 379.56 77.87 392.59 71.68 390.00 58.00 C 387.41 44.32 391.94 31.60 390.00 18.00
C 395.62 19.17 399.88 17.36 398.00 11.00 Z"/>
</g>
<g fill="None" fill-opacity="0.0" stroke="#1C318D" stroke-opacity="0.93" stroke-width="0.3"><path d="
M 86.00 59.00 
C 87.09 61.67 87.76 64.31 89.00 67.00
C 89.70 68.52 90.47 70.14 91.00 72.00
C 92.58 77.49 95.41 82.54 97.00 88.00
C 97.83 90.09 99.31 92.56 100.00 95.00
C 102.53 100.43 103.23 111.16 111.00 112.00 C 118.77 112.84 129.92 111.37 138.00 112.00
C 136.39 109.17 135.95 105.98 135.00 103.00
C 134.18 101.17 132.85 99.02 132.00 97.00
C 129.12 90.18 126.41 82.94 124.00 76.00
C 123.08 74.09 121.83 72.16 121.00 70.00
C 120.47 68.61 119.52 66.71 119.00 65.00
C 118.60 63.69 118.19 62.42 118.00 61.00
C 118.00 61.00 118.11 60.47 118.00 60.00
C 116.12 57.66 114.92 54.95 114.00 52.00
C 111.44 43.79 107.74 36.21 105.00 28.00
C 100.25 30.17 97.15 38.27 94.77 43.77 C 92.39 49.27 86.24 54.41 86.00 59.00 Z"/>
</g>
<g fill="None" fill-opacity="0.0" stroke="#000000" stroke-opacity="0.00" stroke-width="0.3"><path d="
M 173.00 33.00 
C 168.73 39.11 167.38 47.19 164.00 54.00
C 169.67 54.00 175.33 54.00 181.00 54.00
C 178.14 47.06 174.66 40.28 173.00 33.00 Z"/>
</g>
<g fill="None" fill-opacity="0.0" stroke="#189BCD" stroke-opacity="0.89" stroke-width="0.3"><path d="
M 51.00 79.00 
C 54.50 80.84 55.26 83.98 56.00 86.00
C 57.96 89.76 58.86 95.41 61.23 98.77 C 63.60 102.13 64.05 108.80 67.00 111.00
C 65.10 109.05 66.62 104.25 65.00 102.00
C 68.00 106.05 70.48 100.67 68.00 98.00
C 73.29 94.78 76.76 83.98 80.00 77.00
C 82.34 76.32 81.86 79.87 84.00 80.00
C 84.00 79.50 84.00 79.00 84.00 79.00
C 84.00 79.00 84.11 78.47 84.00 78.00
C 82.50 76.13 81.76 74.36 81.00 72.00
C 77.21 61.28 75.17 56.45 70.78 45.22 C 66.39 34.00 55.45 42.03 53.78 51.78 C 52.10 61.52 45.63 68.27 44.00 78.00
C 46.58 78.37 49.02 77.96 51.00 79.00 Z"/>
</g>
<g fill="None" fill-opacity="0.0" stroke="#F7FDFD" stroke-opacity="0.04" stroke-width="0.3"><path d="
M 118.00 60.00 
C 117.27 56.88 115.16 54.65 114.00 52.00
C 114.92 54.95 116.12 57.66 118.00 60.00 Z"/>
</g>
<g fill="None" fill-opacity="0.0" stroke="#F7FDFD" stroke-opacity="0.02" stroke-width="0.3"><path d="
M 119.00 65.00 
C 119.28 65.34 120.86 65.74 121.00 66.00
C 120.70 64.23 118.99 62.23 118.00 61.00
C 118.19 62.42 118.60 63.69 119.00 65.00 Z"/>
</g>
<g fill="None" fill-opacity="0.0" stroke="#189BCD" stroke-opacity="0.11" stroke-width="0.3"><path d="
M 121.00 70.00 
C 120.71 68.74 121.22 67.28 121.00 66.00
C 120.86 65.74 119.28 65.34 119.00 65.00
C 119.52 66.71 120.47 68.61 121.00 70.00 Z"/>
</g>
<g fill="None" fill-opacity="0.0" stroke="#189BCD" stroke-opacity="0.10" stroke-width="0.3"><path d="
M 91.00 72.00 
C 90.47 70.14 89.70 68.52 89.00 67.00
C 89.65 69.08 90.30 70.36 91.00 72.00 Z"/>
</g>
<g fill="None" fill-opacity="0.0" stroke="#F7FDFD" stroke-opacity="0.06" stroke-width="0.3"><path d="
M 124.00 76.00 
C 123.37 74.19 121.35 71.50 121.00 70.00
C 121.83 72.16 123.08 74.09 124.00 76.00 Z"/>
</g>
<g fill="None" fill-opacity="0.0" stroke="#F7FDFD" stroke-opacity="0.04" stroke-width="0.3"><path d="
M 84.00 78.00 
C 83.42 75.55 81.90 74.02 81.00 72.00
C 81.76 74.36 82.50 76.13 84.00 78.00 Z"/>
</g>
<g fill="None" fill-opacity="0.0" stroke="#1C318D" stroke-opacity="0.95" stroke-width="0.3"><path d="
M 67.00 111.00 
C 76.01 113.33 87.17 111.34 97.00 112.00
C 95.64 108.71 94.13 105.43 93.00 102.00
C 92.34 100.67 91.55 99.61 91.00 98.00
C 90.32 96.00 89.95 94.94 89.00 93.00
C 87.29 89.52 84.95 85.03 84.00 81.00
C 83.89 80.53 84.00 80.00 84.00 80.00
C 81.86 79.87 82.34 76.32 80.00 77.00
C 76.76 83.98 73.29 94.78 68.00 98.00
C 70.48 100.67 68.00 106.05 65.00 102.00
C 66.62 104.25 65.10 109.05 67.00 111.00 Z"/>
</g>
<g fill="None" fill-opacity="0.0" stroke="#F7FDFD" stroke-opacity="0.04" stroke-width="0.3"><path d="
M 56.00 86.00 
C 55.26 83.98 54.50 80.84 51.00 79.00
C 53.00 80.28 54.92 83.94 56.00 86.00 Z"/>
</g>
<g fill="None" fill-opacity="0.0" stroke="#F7FDFD" stroke-opacity="0.03" stroke-width="0.3"><path d="
M 84.00 80.00 
C 84.00 80.00 83.89 80.53 84.00 81.00
C 85.24 82.55 87.23 85.26 88.00 87.00
C 87.12 84.05 85.87 81.33 84.00 79.00
C 84.00 79.00 84.00 79.50 84.00 80.00 Z"/>
</g>
<g fill="None" fill-opacity="0.0" stroke="#189BCD" stroke-opacity="0.21" stroke-width="0.3"><path d="
M 89.00 93.00 
C 88.27 90.76 88.58 88.95 88.00 87.00
C 87.23 85.26 85.24 82.55 84.00 81.00
C 84.95 85.03 87.29 89.52 89.00 93.00 Z"/>
</g>
<g fill="None" fill-opacity="0.0" stroke="#189BCD" stroke-opacity="0.85" stroke-width="0.3"><path d="
M 54.00 98.00 
C 53.08 96.00 51.28 91.82 50.00 90.00
C 37.08 79.63 33.84 104.07 30.00 112.00
C 39.67 112.00 49.33 112.00 59.00 112.00
C 57.26 107.34 55.59 102.77 54.00 98.00 Z"/>
</g>
<g fill="None" fill-opacity="0.0" stroke="#189BCD" stroke-opacity="0.06" stroke-width="0.3"><path d="
M 100.00 95.00 
C 99.31 92.56 97.83 90.09 97.00 88.00
C 97.80 90.75 99.10 92.79 100.00 95.00 Z"/>
</g>
<g fill="None" fill-opacity="0.0" stroke="#F7FDFD" stroke-opacity="0.52" stroke-width="0.3"><path d="
M 190.00 88.00 
C 188.33 86.33 184.13 89.49 186.33 91.67 C 188.53 93.85 191.72 89.72 190.00 88.00 Z"/>
</g>
<g fill="None" fill-opacity="0.0" stroke="#F7FDFD" stroke-opacity="0.67" stroke-width="0.3"><path d="
M 218.00 88.00 
C 211.47 87.77 211.39 106.72 219.00 107.00
C 217.88 100.84 217.86 94.47 218.00 88.00 Z"/>
</g>
<g fill="None" fill-opacity="0.0" stroke="#F7FDFD" stroke-opacity="0.70" stroke-width="0.3"><path d="
M 158.00 93.00 
C 154.72 83.88 146.29 91.52 147.00 99.00 C 147.71 106.47 156.59 110.76 158.00 102.00
C 148.82 108.01 148.09 88.78 158.00 93.00 Z"/>
</g>
<g fill="None" fill-opacity="0.0" stroke="#F7FDFD" stroke-opacity="0.75" stroke-width="0.3"><path d="
M 234.00 99.00 
C 231.65 95.44 232.19 87.67 226.00 89.00
C 226.00 94.67 226.00 100.33 226.00 106.00
C 230.46 107.30 230.35 103.15 230.00 100.00
C 232.10 101.46 232.14 106.15 236.00 105.00
C 236.24 102.52 237.74 100.44 238.00 98.00
C 240.86 99.69 236.51 107.22 242.00 106.00
C 242.00 100.33 242.00 94.67 242.00 89.00
C 235.80 87.73 237.08 96.13 234.00 99.00 Z"/>
</g>
<g fill="None" fill-opacity="0.0" stroke="#F7FDFD" stroke-opacity="0.05" stroke-width="0.3"><path d="
M 54.00 98.00 
C 53.05 95.14 52.01 92.20 50.00 90.00
C 51.28 91.82 53.08 96.00 54.00 98.00 Z"/>
</g>
<g fill="None" fill-opacity="0.0" stroke="#F7FDFD" stroke-opacity="0.69" stroke-width="0.3"><path d="
M 197.00 90.00 
C 188.82 88.89 190.87 103.93 195.78 106.22 C 200.68 108.51 207.71 103.56 213.00 107.00
C 209.21 103.83 214.85 94.62 208.00 93.00 C 201.15 91.38 202.18 98.67 208.00 99.00
C 204.26 98.21 200.20 99.52 201.00 104.00
C 195.93 103.96 195.54 96.90 200.00 96.00
C 201.35 92.13 195.61 93.77 197.00 90.00 Z"/>
</g>
<g fill="None" fill-opacity="0.0" stroke="#F7FDFD" stroke-opacity="0.64" stroke-width="0.3"><path d="
M 365.00 94.00 
C 362.46 93.23 360.87 92.28 360.00 90.00
C 350.28 90.10 358.32 113.99 365.00 104.00
C 357.26 102.17 363.16 97.03 365.00 94.00 Z"/>
</g>
<g fill="None" fill-opacity="0.0" stroke="#F7FDFD" stroke-opacity="0.66" stroke-width="0.3"><path d="
M 171.00 107.00 
C 168.40 103.04 173.40 93.91 166.00 93.00 C 158.61 92.10 160.61 98.11 166.00 99.00
C 160.67 96.17 156.96 103.47 160.78 106.22 C 164.60 108.97 167.20 103.01 171.00 107.00 Z"/>
</g>
<g fill="None" fill-opacity="0.0" stroke="#F7FDFD" stroke-opacity="0.68" stroke-width="0.3"><path d="
M 175.00 112.00 
C 175.26 105.62 184.00 107.36 183.99 100.01 C 183.99 92.66 178.17 93.10 173.00 93.00
C 172.28 98.34 169.27 109.40 175.00 112.00
M 180.00 97.00 
C 180.52 99.83 179.88 103.95 176.00 103.00
C 175.48 100.17 176.12 96.05 180.00 97.00 Z"/>
</g>
<g fill="None" fill-opacity="0.0" stroke="#F7FDFD" stroke-opacity="0.65" stroke-width="0.3"><path d="
M 190.00 106.00 
C 189.02 101.86 192.81 92.61 186.00 93.00
C 187.16 97.18 182.89 107.15 190.00 106.00 Z"/>
</g>
<g fill="None" fill-opacity="0.0" stroke="#F7FDFD" stroke-opacity="0.68" stroke-width="0.3"><path d="
M 256.00 107.00 
C 253.69 102.54 258.09 95.25 251.67 93.33 C 245.25 91.42 243.45 97.99 251.00 98.00
C 239.43 100.21 247.53 109.65 256.00 107.00 Z"/>
</g>
<g fill="None" fill-opacity="0.0" stroke="#F7FDFD" stroke-opacity="0.74" stroke-width="0.3"><path d="
M 269.00 106.00 
C 271.29 96.72 266.76 91.14 258.00 93.00
C 259.19 96.93 255.17 105.99 261.00 106.00
C 261.22 102.73 259.53 96.03 265.00 97.00
C 265.45 100.40 263.08 107.61 269.00 106.00 Z"/>
</g>
<g fill="None" fill-opacity="0.0" stroke="#F7FDFD" stroke-opacity="0.70" stroke-width="0.3"><path d="
M 282.00 107.00 
C 281.96 100.07 280.85 88.84 271.00 94.00
C 271.05 98.94 277.85 95.04 278.00 99.00
C 273.05 96.71 268.62 102.25 272.26 105.74 C 275.89 109.24 278.49 103.14 282.00 107.00 Z"/>
</g>
<g fill="None" fill-opacity="0.0" stroke="#F7FDFD" stroke-opacity="0.70" stroke-width="0.3"><path d="
M 295.00 93.00 
C 283.96 90.13 282.19 98.17 284.00 106.00
C 286.19 107.03 289.33 106.42 291.00 108.00
C 288.42 109.65 282.26 105.56 283.00 111.00
C 291.00 117.07 301.48 102.07 288.00 104.00
C 290.55 101.47 296.20 98.89 295.00 93.00
M 290.00 99.00 
C 284.11 100.05 289.99 93.11 290.00 99.00 Z"/>
</g>
<g fill="None" fill-opacity="0.0" stroke="#F7FDFD" stroke-opacity="0.68" stroke-width="0.3"><path d="
M 300.00 101.00 
C 313.06 104.33 303.95 87.37 297.26 95.26 C 290.57 103.14 303.26 111.23 307.00 104.00
C 305.16 101.78 299.91 104.71 300.00 101.00 Z"/>
</g>
<g fill="None" fill-opacity="0.0" stroke="#F7FDFD" stroke-opacity="0.73" stroke-width="0.3"><path d="
M 328.00 106.00 
C 331.85 90.34 318.16 94.19 309.00 93.00
C 310.16 97.18 305.89 107.15 313.00 106.00
C 313.00 103.00 313.00 100.00 313.00 97.00
C 320.43 95.32 313.65 107.15 320.00 106.00
C 320.22 102.73 318.53 96.03 324.00 97.00
C 324.45 100.40 322.08 107.61 328.00 106.00 Z"/>
</g>
<g fill="None" fill-opacity="0.0" stroke="#F7FDFD" stroke-opacity="0.74" stroke-width="0.3"><path d="
M 333.00 102.00 
C 340.85 103.78 342.82 94.68 336.01 93.01 C 329.19 91.34 326.86 102.51 332.31 105.69 C 337.76 108.88 343.84 101.97 333.00 102.00
M 337.00 97.00 
C 333.27 100.33 332.85 94.83 337.00 97.00 Z"/>
</g>
<g fill="None" fill-opacity="0.0" stroke="#F7FDFD" stroke-opacity="0.75" stroke-width="0.3"><path d="
M 354.00 106.00 
C 356.29 96.72 351.76 91.14 343.00 93.00
C 343.00 97.33 343.00 101.67 343.00 106.00
C 349.43 107.10 342.57 95.33 350.00 97.00
C 350.45 100.40 348.08 107.61 354.00 106.00 Z"/>
</g>
<g fill="None" fill-opacity="0.0" stroke="#000000" stroke-opacity="0.00" stroke-width="0.3"><path d="
M 290.00 99.00 
C 289.99 93.11 284.11 100.05 290.00 99.00 Z"/>
</g>
<g fill="None" fill-opacity="0.0" stroke="#000000" stroke-opacity="0.00" stroke-width="0.3"><path d="
M 337.00 97.00 
C 332.85 94.83 333.27 100.33 337.00 97.00 Z"/>
</g>
<g fill="None" fill-opacity="0.0" stroke="#F7FDFD" stroke-opacity="0.03" stroke-width="0.3"><path d="
M 135.00 103.00 
C 134.24 100.63 133.14 99.00 132.00 97.00
C 132.85 99.02 134.18 101.17 135.00 103.00 Z"/>
</g>
<g fill="None" fill-opacity="0.0" stroke="#000000" stroke-opacity="0.00" stroke-width="0.3"><path d="
M 180.00 97.00 
C 176.12 96.05 175.48 100.17 176.00 103.00
C 179.88 103.95 180.52 99.83 180.00 97.00 Z"/>
</g>
<g fill="None" fill-opacity="0.0" stroke="#189BCD" stroke-opacity="0.11" stroke-width="0.3"><path d="
M 93.00 102.00 
C 92.36 100.06 91.78 99.53 91.00 98.00
C 91.55 99.61 92.34 100.67 93.00 102.00 Z"/>
</g>
<g fill="#000000" fill-opacity="0.00" stroke="None">
<path d="
M 0.00 119.00 
L 438.00 119.00
L 438.00 0.00
L 0.00 0.00
L 0.00 119.00
M 105.00 28.00 
C 107.74 36.21 111.44 43.79 114.00 52.00
C 115.16 54.65 117.27 56.88 118.00 60.00
C 118.11 60.47 118.00 61.00 118.00 61.00
C 118.99 62.23 120.70 64.23 121.00 66.00
C 121.22 67.28 120.71 68.74 121.00 70.00
C 121.35 71.50 123.37 74.19 124.00 76.00
C 126.41 82.94 129.12 90.18 132.00 97.00
C 133.14 99.00 134.24 100.63 135.00 103.00
C 135.95 105.98 136.39 109.17 138.00 112.00
C 129.92 111.37 118.77 112.84 111.00 112.00 C 103.23 111.16 102.53 100.43 100.00 95.00
C 99.10 92.79 97.80 90.75 97.00 88.00
C 95.41 82.54 92.58 77.49 91.00 72.00
C 90.30 70.36 89.65 69.08 89.00 67.00
C 87.76 64.31 87.09 61.67 86.00 59.00
C 83.38 52.55 79.00 47.40 78.07 39.93 C 77.15 32.46 65.65 31.63 64.08 26.92 C 62.52 22.20 68.25 11.64 70.93 6.93 C 73.60 2.21 91.85 6.45 97.00 5.00
C 97.43 13.29 102.96 20.12 105.00 28.00
M 215.00 70.00 
C 217.48 79.70 207.71 76.77 201.00 77.00 C 194.29 77.23 185.86 76.83 179.00 77.00
C 177.12 70.64 181.38 68.83 187.00 70.00
C 186.06 67.29 184.60 64.81 184.00 62.00
C 175.12 63.72 158.67 56.68 158.00 70.00
C 163.63 68.78 167.80 70.63 166.00 77.00
C 156.67 77.00 147.33 77.00 138.00 77.00
C 135.31 68.64 143.27 69.69 149.00 70.00
C 155.97 49.78 164.95 30.22 172.00 10.00
C 188.03 7.88 186.00 30.13 192.93 40.07 C 199.85 50.02 197.92 73.30 215.00 70.00
M 412.00 12.00 
C 409.50 14.01 409.76 17.03 410.00 21.00
C 404.29 20.85 409.00 11.56 404.00 10.00
C 406.67 10.00 409.33 10.00 412.00 10.00
C 415.44 10.33 418.68 10.22 418.00 15.00
C 421.75 14.92 419.93 8.02 425.00 10.00
C 425.00 13.67 425.00 17.33 425.00 21.00
C 420.84 22.48 422.38 13.85 420.00 20.00
C 414.98 16.05 417.89 19.95 413.00 21.00
C 412.41 18.16 414.23 14.02 412.00 12.00
M 259.00 11.00 
C 261.48 18.75 254.68 18.60 249.00 18.00
C 249.00 26.00 249.00 34.00 249.00 42.00
C 258.32 34.73 266.35 25.61 276.00 19.00
C 271.67 18.52 269.96 15.89 271.00 11.00
C 280.33 11.00 289.67 11.00 299.00 11.00
C 302.53 20.95 284.82 17.03 281.75 23.75 C 278.69 30.48 265.54 32.42 269.31 39.70 C 273.07 46.97 278.36 50.74 282.30 57.70 C 286.24 64.66 291.57 72.78 301.00 70.00
C 303.64 79.72 293.49 76.76 287.00 77.00 C 280.51 77.24 272.62 76.82 266.00 77.00
C 264.39 71.16 267.63 69.80 272.00 69.00
C 266.29 62.20 260.80 54.61 256.00 47.00
C 253.26 48.09 252.17 52.03 249.00 52.00
C 249.00 58.00 249.00 64.00 249.00 70.00
C 252.33 70.00 255.67 70.00 259.00 70.00
C 261.59 80.05 250.72 76.64 244.00 77.00 C 237.28 77.36 228.87 76.73 222.00 77.00
C 219.52 69.25 226.32 69.40 232.00 70.00
C 232.00 52.67 232.00 35.33 232.00 18.00
C 228.67 18.00 225.33 18.00 222.00 18.00
C 219.41 7.95 230.28 11.36 237.00 11.00 C 243.72 10.64 252.13 11.27 259.00 11.00
M 345.00 11.00 
C 347.69 19.36 339.73 18.31 334.00 18.00
C 334.00 35.33 334.00 52.67 334.00 70.00
C 337.67 70.00 341.33 70.00 345.00 70.00
C 347.51 80.36 335.95 76.53 329.00 77.00 C 322.05 77.47 313.13 76.65 306.00 77.00
C 303.31 68.64 311.27 69.69 317.00 70.00
C 317.00 52.67 317.00 35.33 317.00 18.00
C 313.33 18.00 309.67 18.00 306.00 18.00
C 303.49 7.64 315.05 11.47 322.00 11.00 C 328.95 10.53 337.87 11.35 345.00 11.00
M 398.00 11.00 
C 399.88 17.36 395.62 19.17 390.00 18.00
C 391.94 31.60 387.41 44.32 390.00 58.00 C 392.59 71.68 379.56 77.87 369.00 78.00 C 358.44 78.13 343.71 77.15 346.33 63.33 C 348.95 49.51 372.48 61.23 362.00 72.00
C 374.97 73.64 374.36 61.00 374.00 51.00 C 373.64 41.00 374.27 28.25 374.00 18.00
C 369.33 18.00 364.67 18.00 360.00 18.00
C 357.57 7.96 368.06 11.34 375.00 11.00 C 381.94 10.66 390.88 11.25 398.00 11.00
M 81.00 72.00 
C 81.90 74.02 83.42 75.55 84.00 78.00
C 84.11 78.47 84.00 79.00 84.00 79.00
C 85.87 81.33 87.12 84.05 88.00 87.00
C 88.58 88.95 88.27 90.76 89.00 93.00
C 89.95 94.94 90.32 96.00 91.00 98.00
C 91.78 99.53 92.36 100.06 93.00 102.00
C 94.13 105.43 95.64 108.71 97.00 112.00
C 87.17 111.34 76.01 113.33 67.00 111.00
C 64.05 108.80 63.60 102.13 61.23 98.77 C 58.86 95.41 57.96 89.76 56.00 86.00
C 54.92 83.94 53.00 80.28 51.00 79.00
C 49.02 77.96 46.58 78.37 44.00 78.00
C 45.63 68.27 52.10 61.52 53.78 51.78 C 55.45 42.03 66.39 34.00 70.78 45.22 C 75.17 56.45 77.21 61.28 81.00 72.00
M 50.00 90.00 
C 52.01 92.20 53.05 95.14 54.00 98.00
C 55.59 102.77 57.26 107.34 59.00 112.00
C 49.33 112.00 39.67 112.00 30.00 112.00
C 33.84 104.07 37.08 79.63 50.00 90.00
M 190.00 88.00 
C 191.72 89.72 188.53 93.85 186.33 91.67 C 184.13 89.49 188.33 86.33 190.00 88.00
M 218.00 88.00 
C 217.86 94.47 217.88 100.84 219.00 107.00
C 211.39 106.72 211.47 87.77 218.00 88.00
M 158.00 93.00 
C 148.09 88.78 148.82 108.01 158.00 102.00
C 156.59 110.76 147.71 106.47 147.00 99.00 C 146.29 91.52 154.72 83.88 158.00 93.00
M 234.00 99.00 
C 237.08 96.13 235.80 87.73 242.00 89.00
C 242.00 94.67 242.00 100.33 242.00 106.00
C 236.51 107.22 240.86 99.69 238.00 98.00
C 237.74 100.44 236.24 102.52 236.00 105.00
C 232.14 106.15 232.10 101.46 230.00 100.00
C 230.35 103.15 230.46 107.30 226.00 106.00
C 226.00 100.33 226.00 94.67 226.00 89.00
C 232.19 87.67 231.65 95.44 234.00 99.00
M 197.00 90.00 
C 195.61 93.77 201.35 92.13 200.00 96.00
C 195.54 96.90 195.93 103.96 201.00 104.00
C 200.20 99.52 204.26 98.21 208.00 99.00
C 202.18 98.67 201.15 91.38 208.00 93.00 C 214.85 94.62 209.21 103.83 213.00 107.00
C 207.71 103.56 200.68 108.51 195.78 106.22 C 190.87 103.93 188.82 88.89 197.00 90.00
M 365.00 94.00 
C 363.16 97.03 357.26 102.17 365.00 104.00
C 358.32 113.99 350.28 90.10 360.00 90.00
C 360.87 92.28 362.46 93.23 365.00 94.00
M 171.00 107.00 
C 167.20 103.01 164.60 108.97 160.78 106.22 C 156.96 103.47 160.67 96.17 166.00 99.00
C 160.61 98.11 158.61 92.10 166.00 93.00 C 173.40 93.91 168.40 103.04 171.00 107.00
M 175.00 112.00 
C 169.27 109.40 172.28 98.34 173.00 93.00
C 178.17 93.10 183.99 92.66 183.99 100.01 C 184.00 107.36 175.26 105.62 175.00 112.00
M 190.00 106.00 
C 182.89 107.15 187.16 97.18 186.00 93.00
C 192.81 92.61 189.02 101.86 190.00 106.00
M 256.00 107.00 
C 247.53 109.65 239.43 100.21 251.00 98.00
C 243.45 97.99 245.25 91.42 251.67 93.33 C 258.09 95.25 253.69 102.54 256.00 107.00
M 269.00 106.00 
C 263.08 107.61 265.45 100.40 265.00 97.00
C 259.53 96.03 261.22 102.73 261.00 106.00
C 255.17 105.99 259.19 96.93 258.00 93.00
C 266.76 91.14 271.29 96.72 269.00 106.00
M 282.00 107.00 
C 278.49 103.14 275.89 109.24 272.26 105.74 C 268.62 102.25 273.05 96.71 278.00 99.00
C 277.85 95.04 271.05 98.94 271.00 94.00
C 280.85 88.84 281.96 100.07 282.00 107.00
M 295.00 93.00 
C 296.20 98.89 290.55 101.47 288.00 104.00
C 301.48 102.07 291.00 117.07 283.00 111.00
C 282.26 105.56 288.42 109.65 291.00 108.00
C 289.33 106.42 286.19 107.03 284.00 106.00
C 282.19 98.17 283.96 90.13 295.00 93.00
M 300.00 101.00 
C 299.91 104.71 305.16 101.78 307.00 104.00
C 303.26 111.23 290.57 103.14 297.26 95.26 C 303.95 87.37 313.06 104.33 300.00 101.00
M 328.00 106.00 
C 322.08 107.61 324.45 100.40 324.00 97.00
C 318.53 96.03 320.22 102.73 320.00 106.00
C 313.65 107.15 320.43 95.32 313.00 97.00
C 313.00 100.00 313.00 103.00 313.00 106.00
C 305.89 107.15 310.16 97.18 309.00 93.00
C 318.16 94.19 331.85 90.34 328.00 106.00
M 333.00 102.00 
C 343.84 101.97 337.76 108.88 332.31 105.69 C 326.86 102.51 329.19 91.34 336.01 93.01 C 342.82 94.68 340.85 103.78 333.00 102.00
M 354.00 106.00 
C 348.08 107.61 350.45 100.40 350.00 97.00
C 342.57 95.33 349.43 107.10 343.00 106.00
C 343.00 101.67 343.00 97.33 343.00 93.00
C 351.76 91.14 356.29 96.72 354.00 106.00 Z"/>
</g>
<g fill="#189BCD" fill-opacity="0.89" stroke="None">
<path d="
M 86.00 59.00 
C 86.24 54.41 92.39 49.27 94.77 43.77 C 97.15 38.27 100.25 30.17 105.00 28.00
C 102.96 20.12 97.43 13.29 97.00 5.00
C 91.85 6.45 73.60 2.21 70.93 6.93 C 68.25 11.64 62.52 22.20 64.08 26.92 C 65.65 31.63 77.15 32.46 78.07 39.93 C 79.00 47.40 83.38 52.55 86.00 59.00 Z"/>
</g>
<g fill="#F7FDFD" fill-opacity="0.93" stroke="None">
<path d="
M 215.00 70.00 
C 197.92 73.30 199.85 50.02 192.93 40.07 C 186.00 30.13 188.03 7.88 172.00 10.00
C 164.95 30.22 155.97 49.78 149.00 70.00
C 143.27 69.69 135.31 68.64 138.00 77.00
C 147.33 77.00 156.67 77.00 166.00 77.00
C 167.80 70.63 163.63 68.78 158.00 70.00
C 158.67 56.68 175.12 63.72 184.00 62.00
C 184.60 64.81 186.06 67.29 187.00 70.00
C 181.38 68.83 177.12 70.64 179.00 77.00
C 185.86 76.83 194.29 77.23 201.00 77.00 C 207.71 76.77 217.48 79.70 215.00 70.00
M 173.00 33.00 
C 174.66 40.28 178.14 47.06 181.00 54.00
C 175.33 54.00 169.67 54.00 164.00 54.00
C 167.38 47.19 168.73 39.11 173.00 33.00 Z"/>
</g>
<g fill="#F7FDFD" fill-opacity="0.73" stroke="None">
<path d="
M 412.00 12.00 
C 411.82 11.58 412.19 10.08 412.00 10.00
C 409.33 10.00 406.67 10.00 404.00 10.00
C 409.00 11.56 404.29 20.85 410.00 21.00
C 409.76 17.03 409.50 14.01 412.00 12.00 Z"/>
</g>
<g fill="#F7FDFD" fill-opacity="0.62" stroke="None">
<path d="
M 412.00 12.00 
C 414.23 14.02 412.41 18.16 413.00 21.00
C 417.89 19.95 414.98 16.05 420.00 20.00
C 422.38 13.85 420.84 22.48 425.00 21.00
C 425.00 17.33 425.00 13.67 425.00 10.00
C 419.93 8.02 421.75 14.92 418.00 15.00
C 418.68 10.22 415.44 10.33 412.00 10.00
C 412.19 10.08 411.82 11.58 412.00 12.00 Z"/>
</g>
<g fill="#F7FDFD" fill-opacity="0.94" stroke="None">
<path d="
M 259.00 11.00 
C 252.13 11.27 243.72 10.64 237.00 11.00 C 230.28 11.36 219.41 7.95 222.00 18.00
C 225.33 18.00 228.67 18.00 232.00 18.00
C 232.00 35.33 232.00 52.67 232.00 70.00
C 226.32 69.40 219.52 69.25 222.00 77.00
C 228.87 76.73 237.28 77.36 244.00 77.00 C 250.72 76.64 261.59 80.05 259.00 70.00
C 255.67 70.00 252.33 70.00 249.00 70.00
C 249.00 64.00 249.00 58.00 249.00 52.00
C 252.17 52.03 253.26 48.09 256.00 47.00
C 260.80 54.61 266.29 62.20 272.00 69.00
C 267.63 69.80 264.39 71.16 266.00 77.00
C 272.62 76.82 280.51 77.24 287.00 77.00 C 293.49 76.76 303.64 79.72 301.00 70.00
C 291.57 72.78 286.24 64.66 282.30 57.70 C 278.36 50.74 273.07 46.97 269.31 39.70 C 265.54 32.42 278.69 30.48 281.75 23.75 C 284.82 17.03 302.53 20.95 299.00 11.00
C 289.67 11.00 280.33 11.00 271.00 11.00
C 269.96 15.89 271.67 18.52 276.00 19.00
C 266.35 25.61 258.32 34.73 249.00 42.00
C 249.00 34.00 249.00 26.00 249.00 18.00
C 254.68 18.60 261.48 18.75 259.00 11.00 Z"/>
</g>
<g fill="#F7FDFD" fill-opacity="0.94" stroke="None">
<path d="
M 345.00 11.00 
C 337.87 11.35 328.95 10.53 322.00 11.00 C 315.05 11.47 303.49 7.64 306.00 18.00
C 309.67 18.00 313.33 18.00 317.00 18.00
C 317.00 35.33 317.00 52.67 317.00 70.00
C 311.27 69.69 303.31 68.64 306.00 77.00
C 313.13 76.65 322.05 77.47 329.00 77.00 C 335.95 76.53 347.51 80.36 345.00 70.00
C 341.33 70.00 337.67 70.00 334.00 70.00
C 334.00 52.67 334.00 35.33 334.00 18.00
C 339.73 18.31 347.69 19.36 345.00 11.00 Z"/>
</g>
<g fill="#F7FDFD" fill-opacity="0.94" stroke="None">
<path d="
M 398.00 11.00 
C 390.88 11.25 381.94 10.66 375.00 11.00 C 368.06 11.34 357.57 7.96 360.00 18.00
C 364.67 18.00 369.33 18.00 374.00 18.00
C 374.27 28.25 373.64 41.00 374.00 51.00 C 374.36 61.00 374.97 73.64 362.00 72.00
C 372.48 61.23 348.95 49.51 346.33 63.33 C 343.71 77.15 358.44 78.13 369.00 78.00 C 379.56 77.87 392.59 71.68 390.00 58.00 C 387.41 44.32 391.94 31.60 390.00 18.00
C 395.62 19.17 399.88 17.36 398.00 11.00 Z"/>
</g>
<g fill="#1C318D" fill-opacity="0.93" stroke="None">
<path d="
M 86.00 59.00 
C 87.09 61.67 87.76 64.31 89.00 67.00
C 89.70 68.52 90.47 70.14 91.00 72.00
C 92.58 77.49 95.41 82.54 97.00 88.00
C 97.83 90.09 99.31 92.56 100.00 95.00
C 102.53 100.43 103.23 111.16 111.00 112.00 C 118.77 112.84 129.92 111.37 138.00 112.00
C 136.39 109.17 135.95 105.98 135.00 103.00
C 134.18 101.17 132.85 99.02 132.00 97.00
C 129.12 90.18 126.41 82.94 124.00 76.00
C 123.08 74.09 121.83 72.16 121.00 70.00
C 120.47 68.61 119.52 66.71 119.00 65.00
C 118.60 63.69 118.19 62.42 118.00 61.00
C 118.00 61.00 118.11 60.47 118.00 60.00
C 116.12 57.66 114.92 54.95 114.00 52.00
C 111.44 43.79 107.74 36.21 105.00 28.00
C 100.25 30.17 97.15 38.27 94.77 43.77 C 92.39 49.27 86.24 54.41 86.00 59.00 Z"/>
</g>
<g fill="#000000" fill-opacity="0.00" stroke="None">
<path d="
M 173.00 33.00 
C 168.73 39.11 167.38 47.19 164.00 54.00
C 169.67 54.00 175.33 54.00 181.00 54.00
C 178.14 47.06 174.66 40.28 173.00 33.00 Z"/>
</g>
<g fill="#189BCD" fill-opacity="0.89" stroke="None">
<path d="
M 51.00 79.00 
C 54.50 80.84 55.26 83.98 56.00 86.00
C 57.96 89.76 58.86 95.41 61.23 98.77 C 63.60 102.13 64.05 108.80 67.00 111.00
C 65.10 109.05 66.62 104.25 65.00 102.00
C 68.00 106.05 70.48 100.67 68.00 98.00
C 73.29 94.78 76.76 83.98 80.00 77.00
C 82.34 76.32 81.86 79.87 84.00 80.00
C 84.00 79.50 84.00 79.00 84.00 79.00
C 84.00 79.00 84.11 78.47 84.00 78.00
C 82.50 76.13 81.76 74.36 81.00 72.00
C 77.21 61.28 75.17 56.45 70.78 45.22 C 66.39 34.00 55.45 42.03 53.78 51.78 C 52.10 61.52 45.63 68.27 44.00 78.00
C 46.58 78.37 49.02 77.96 51.00 79.00 Z"/>
</g>
<g fill="#F7FDFD" fill-opacity="0.04" stroke="None">
<path d="
M 118.00 60.00 
C 117.27 56.88 115.16 54.65 114.00 52.00
C 114.92 54.95 116.12 57.66 118.00 60.00 Z"/>
</g>
<g fill="#F7FDFD" fill-opacity="0.02" stroke="None">
<path d="
M 119.00 65.00 
C 119.28 65.34 120.86 65.74 121.00 66.00
C 120.70 64.23 118.99 62.23 118.00 61.00
C 118.19 62.42 118.60 63.69 119.00 65.00 Z"/>
</g>
<g fill="#189BCD" fill-opacity="0.11" stroke="None">
<path d="
M 121.00 70.00 
C 120.71 68.74 121.22 67.28 121.00 66.00
C 120.86 65.74 119.28 65.34 119.00 65.00
C 119.52 66.71 120.47 68.61 121.00 70.00 Z"/>
</g>
<g fill="#189BCD" fill-opacity="0.10" stroke="None">
<path d="
M 91.00 72.00 
C 90.47 70.14 89.70 68.52 89.00 67.00
C 89.65 69.08 90.30 70.36 91.00 72.00 Z"/>
</g>
<g fill="#F7FDFD" fill-opacity="0.06" stroke="None">
<path d="
M 124.00 76.00 
C 123.37 74.19 121.35 71.50 121.00 70.00
C 121.83 72.16 123.08 74.09 124.00 76.00 Z"/>
</g>
<g fill="#F7FDFD" fill-opacity="0.04" stroke="None">
<path d="
M 84.00 78.00 
C 83.42 75.55 81.90 74.02 81.00 72.00
C 81.76 74.36 82.50 76.13 84.00 78.00 Z"/>
</g>
<g fill="#1C318D" fill-opacity="0.95" stroke="None">
<path d="
M 67.00 111.00 
C 76.01 113.33 87.17 111.34 97.00 112.00
C 95.64 108.71 94.13 105.43 93.00 102.00
C 92.34 100.67 91.55 99.61 91.00 98.00
C 90.32 96.00 89.95 94.94 89.00 93.00
C 87.29 89.52 84.95 85.03 84.00 81.00
C 83.89 80.53 84.00 80.00 84.00 80.00
C 81.86 79.87 82.34 76.32 80.00 77.00
C 76.76 83.98 73.29 94.78 68.00 98.00
C 70.48 100.67 68.00 106.05 65.00 102.00
C 66.62 104.25 65.10 109.05 67.00 111.00 Z"/>
</g>
<g fill="#F7FDFD" fill-opacity="0.04" stroke="None">
<path d="
M 56.00 86.00 
C 55.26 83.98 54.50 80.84 51.00 79.00
C 53.00 80.28 54.92 83.94 56.00 86.00 Z"/>
</g>
<g fill="#F7FDFD" fill-opacity="0.03" stroke="None">
<path d="
M 84.00 80.00 
C 84.00 80.00 83.89 80.53 84.00 81.00
C 85.24 82.55 87.23 85.26 88.00 87.00
C 87.12 84.05 85.87 81.33 84.00 79.00
C 84.00 79.00 84.00 79.50 84.00 80.00 Z"/>
</g>
<g fill="#189BCD" fill-opacity="0.21" stroke="None">
<path d="
M 89.00 93.00 
C 88.27 90.76 88.58 88.95 88.00 87.00
C 87.23 85.26 85.24 82.55 84.00 81.00
C 84.95 85.03 87.29 89.52 89.00 93.00 Z"/>
</g>
<g fill="#189BCD" fill-opacity="0.85" stroke="None">
<path d="
M 54.00 98.00 
C 53.08 96.00 51.28 91.82 50.00 90.00
C 37.08 79.63 33.84 104.07 30.00 112.00
C 39.67 112.00 49.33 112.00 59.00 112.00
C 57.26 107.34 55.59 102.77 54.00 98.00 Z"/>
</g>
<g fill="#189BCD" fill-opacity="0.06" stroke="None">
<path d="
M 100.00 95.00 
C 99.31 92.56 97.83 90.09 97.00 88.00
C 97.80 90.75 99.10 92.79 100.00 95.00 Z"/>
</g>
<g fill="#F7FDFD" fill-opacity="0.52" stroke="None">
<path d="
M 190.00 88.00 
C 188.33 86.33 184.13 89.49 186.33 91.67 C 188.53 93.85 191.72 89.72 190.00 88.00 Z"/>
</g>
<g fill="#F7FDFD" fill-opacity="0.67" stroke="None">
<path d="
M 218.00 88.00 
C 211.47 87.77 211.39 106.72 219.00 107.00
C 217.88 100.84 217.86 94.47 218.00 88.00 Z"/>
</g>
<g fill="#F7FDFD" fill-opacity="0.70" stroke="None">
<path d="
M 158.00 93.00 
C 154.72 83.88 146.29 91.52 147.00 99.00 C 147.71 106.47 156.59 110.76 158.00 102.00
C 148.82 108.01 148.09 88.78 158.00 93.00 Z"/>
</g>
<g fill="#F7FDFD" fill-opacity="0.75" stroke="None">
<path d="
M 234.00 99.00 
C 231.65 95.44 232.19 87.67 226.00 89.00
C 226.00 94.67 226.00 100.33 226.00 106.00
C 230.46 107.30 230.35 103.15 230.00 100.00
C 232.10 101.46 232.14 106.15 236.00 105.00
C 236.24 102.52 237.74 100.44 238.00 98.00
C 240.86 99.69 236.51 107.22 242.00 106.00
C 242.00 100.33 242.00 94.67 242.00 89.00
C 235.80 87.73 237.08 96.13 234.00 99.00 Z"/>
</g>
<g fill="#F7FDFD" fill-opacity="0.05" stroke="None">
<path d="
M 54.00 98.00 
C 53.05 95.14 52.01 92.20 50.00 90.00
C 51.28 91.82 53.08 96.00 54.00 98.00 Z"/>
</g>
<g fill="#F7FDFD" fill-opacity="0.69" stroke="None">
<path d="
M 197.00 90.00 
C 188.82 88.89 190.87 103.93 195.78 106.22 C 200.68 108.51 207.71 103.56 213.00 107.00
C 209.21 103.83 214.85 94.62 208.00 93.00 C 201.15 91.38 202.18 98.67 208.00 99.00
C 204.26 98.21 200.20 99.52 201.00 104.00
C 195.93 103.96 195.54 96.90 200.00 96.00
C 201.35 92.13 195.61 93.77 197.00 90.00 Z"/>
</g>
<g fill="#F7FDFD" fill-opacity="0.64" stroke="None">
<path d="
M 365.00 94.00 
C 362.46 93.23 360.87 92.28 360.00 90.00
C 350.28 90.10 358.32 113.99 365.00 104.00
C 357.26 102.17 363.16 97.03 365.00 94.00 Z"/>
</g>
<g fill="#F7FDFD" fill-opacity="0.66" stroke="None">
<path d="
M 171.00 107.00 
C 168.40 103.04 173.40 93.91 166.00 93.00 C 158.61 92.10 160.61 98.11 166.00 99.00
C 160.67 96.17 156.96 103.47 160.78 106.22 C 164.60 108.97 167.20 103.01 171.00 107.00 Z"/>
</g>
<g fill="#F7FDFD" fill-opacity="0.68" stroke="None">
<path d="
M 175.00 112.00 
C 175.26 105.62 184.00 107.36 183.99 100.01 C 183.99 92.66 178.17 93.10 173.00 93.00
C 172.28 98.34 169.27 109.40 175.00 112.00
M 180.00 97.00 
C 180.52 99.83 179.88 103.95 176.00 103.00
C 175.48 100.17 176.12 96.05 180.00 97.00 Z"/>
</g>
<g fill="#F7FDFD" fill-opacity="0.65" stroke="None">
<path d="
M 190.00 106.00 
C 189.02 101.86 192.81 92.61 186.00 93.00
C 187.16 97.18 182.89 107.15 190.00 106.00 Z"/>
</g>
<g fill="#F7FDFD" fill-opacity="0.68" stroke="None">
<path d="
M 256.00 107.00 
C 253.69 102.54 258.09 95.25 251.67 93.33 C 245.25 91.42 243.45 97.99 251.00 98.00
C 239.43 100.21 247.53 109.65 256.00 107.00 Z"/>
</g>
<g fill="#F7FDFD" fill-opacity="0.74" stroke="None">
<path d="
M 269.00 106.00 
C 271.29 96.72 266.76 91.14 258.00 93.00
C 259.19 96.93 255.17 105.99 261.00 106.00
C 261.22 102.73 259.53 96.03 265.00 97.00
C 265.45 100.40 263.08 107.61 269.00 106.00 Z"/>
</g>
<g fill="#F7FDFD" fill-opacity="0.70" stroke="None">
<path d="
M 282.00 107.00 
C 281.96 100.07 280.85 88.84 271.00 94.00
C 271.05 98.94 277.85 95.04 278.00 99.00
C 273.05 96.71 268.62 102.25 272.26 105.74 C 275.89 109.24 278.49 103.14 282.00 107.00 Z"/>
</g>
<g fill="#F7FDFD" fill-opacity="0.70" stroke="None">
<path d="
M 295.00 93.00 
C 283.96 90.13 282.19 98.17 284.00 106.00
C 286.19 107.03 289.33 106.42 291.00 108.00
C 288.42 109.65 282.26 105.56 283.00 111.00
C 291.00 117.07 301.48 102.07 288.00 104.00
C 290.55 101.47 296.20 98.89 295.00 93.00
M 290.00 99.00 
C 284.11 100.05 289.99 93.11 290.00 99.00 Z"/>
</g>
<g fill="#F7FDFD" fill-opacity="0.68" stroke="None">
<path d="
M 300.00 101.00 
C 313.06 104.33 303.95 87.37 297.26 95.26 C 290.57 103.14 303.26 111.23 307.00 104.00
C 305.16 101.78 299.91 104.71 300.00 101.00 Z"/>
</g>
<g fill="#F7FDFD" fill-opacity="0.73" stroke="None">
<path d="
M 328.00 106.00 
C 331.85 90.34 318.16 94.19 309.00 93.00
C 310.16 97.18 305.89 107.15 313.00 106.00
C 313.00 103.00 313.00 100.00 313.00 97.00
C 320.43 95.32 313.65 107.15 320.00 106.00
C 320.22 102.73 318.53 96.03 324.00 97.00
C 324.45 100.40 322.08 107.61 328.00 106.00 Z"/>
</g>
<g fill="#F7FDFD" fill-opacity="0.74" stroke="None">
<path d="
M 333.00 102.00 
C 340.85 103.78 342.82 94.68 336.01 93.01 C 329.19 91.34 326.86 102.51 332.31 105.69 C 337.76 108.88 343.84 101.97 333.00 102.00
M 337.00 97.00 
C 333.27 100.33 332.85 94.83 337.00 97.00 Z"/>
</g>
<g fill="#F7FDFD" fill-opacity="0.75" stroke="None">
<path d="
M 354.00 106.00 
C 356.29 96.72 351.76 91.14 343.00 93.00
C 343.00 97.33 343.00 101.67 343.00 106.00
C 349.43 107.10 342.57 95.33 350.00 97.00
C 350.45 100.40 348.08 107.61 354.00 106.00 Z"/>
</g>
<g fill="#000000" fill-opacity="0.00" stroke="None">
<path d="
M 290.00 99.00 
C 289.99 93.11 284.11 100.05 290.00 99.00 Z"/>
</g>
<g fill="#000000" fill-opacity="0.00" stroke="None">
<path d="
M 337.00 97.00 
C 332.85 94.83 333.27 100.33 337.00 97.00 Z"/>
</g>
<g fill="#F7FDFD" fill-opacity="0.03" stroke="None">
<path d="
M 135.00 103.00 
C 134.24 100.63 133.14 99.00 132.00 97.00
C 132.85 99.02 134.18 101.17 135.00 103.00 Z"/>
</g>
<g fill="#000000" fill-opacity="0.00" stroke="None">
<path d="
M 180.00 97.00 
C 176.12 96.05 175.48 100.17 176.00 103.00
C 179.88 103.95 180.52 99.83 180.00 97.00 Z"/>
</g>
<g fill="#189BCD" fill-opacity="0.11" stroke="None">
<path d="
M 93.00 102.00 
C 92.36 100.06 91.78 99.53 91.00 98.00
C 91.55 99.61 92.34 100.67 93.00 102.00 Z"/>
</g>
</svg>